<?xml version="1.0" encoding="UTF-8"?>
<!DOCTYPE svg PUBLIC "-//W3C//DTD SVG 1.1//EN" "http://www.w3.org/Graphics/SVG/1.1/DTD/svg11.dtd">
<!-- Creator: CorelDRAW 2021 (64 Bit) -->
<svg xmlns="http://www.w3.org/2000/svg" xml:space="preserve" width="65.9323mm" height="66.0586mm" version="1.1" style="shape-rendering:geometricPrecision; text-rendering:geometricPrecision; image-rendering:optimizeQuality; fill-rule:evenodd; clip-rule:evenodd"
viewBox="0 0 931.19 932.97"
 xmlns:xlink="http://www.w3.org/1999/xlink"
 xmlns:xodm="http://www.corel.com/coreldraw/odm/2003">
 <defs>
  <style type="text/css">
   <![CDATA[
    .fil0 {fill:#15A0A7}
   ]]>
  </style>
 </defs>
 <g id="Camada_x0020_1">
  <metadata id="CorelCorpID_0Corel-Layer"/>
  <path class="fil0" d="M24.54 485.52l5.33 -101.21c57.05,38.2 36.03,84.15 62.07,145.68 30.64,72.4 93.8,23.79 166.87,147.41 24.45,41.37 7.85,47.41 21.7,84.84 11.04,29.83 31.78,35.13 50.66,55.87 17.37,19.08 26.36,46.35 28.96,77.58 -60.24,-28.9 -73.45,-8.25 -181.91,-95.09 -86.29,-69.09 -153.68,-200.13 -153.68,-315.08zm575.3 -69.25c0,-39.56 60.74,-63.92 79.9,-63.92 33.47,0 56.47,31.96 79.9,31.96 39.24,0 52.96,-15.98 85.23,-15.98 112.08,0 58.97,263.13 -28.2,365.98 -19.05,22.48 -39.31,54.01 -62.35,60.16 -0.53,-23.95 -8.12,-39.69 -17.53,-57.05 -18.36,-33.86 -99.28,-100.44 -108.66,-115.44 -27.6,-44.12 45.93,-91.47 13.72,-135.47l-17.45 -20.23c-11.01,-12.85 -24.56,-28.94 -24.56,-50.02zm-319.61 -85.23c0,39.13 14.46,76.29 -17.92,99.27 -12.77,9.06 -30.21,12.61 -41.73,22.2 -30.69,25.55 -26.96,77.73 13.89,105.41 31.25,21.17 95.32,56.57 133.69,52.42 3.72,-0.4 146.45,-47.26 146.45,8.36 0,150.17 -63.92,202.82 -63.92,287.65l-69.25 -5.33c0,-126.38 -68.99,-97.04 -79.2,-155.18 -12.52,-71.3 -7.54,-77.47 -73.92,-144.48 -61.11,-61.69 -104.57,-26.81 -119.3,-99.1 -28.5,-139.85 -19.42,-76.61 -68.5,-149.9 18.32,-78.63 85.62,-188.28 148.22,-230.47 26.03,-17.54 35.25,6.75 102.14,6.75 68.17,0 74.92,-27.13 95.22,43.27 20.18,69.99 53.93,75.73 53.93,95.22 0,18.41 -27.92,41.98 -49.53,34.07 -22.02,-8.06 -26.95,-34.07 -62.33,-34.07 -33.78,0 -47.94,30.45 -47.94,63.92zm261.02 -245.03c0,-20.41 39.32,-44.34 61.67,-40.25 15.57,2.85 63.28,27.77 76.9,34.86 41.22,21.42 97.77,64.43 122.45,101.28 -90.96,-7.57 -124.27,-60.39 -154.48,69.25 -28.01,0 -35.27,0.77 -48.4,-15.52 -10.95,-13.58 -14.3,-26.29 -17.94,-51.31 -15.66,-107.88 -40.2,-65.94 -40.2,-98.3zm-26.64 0c0,13.47 12.45,30.09 20.11,38.49 13.56,14.87 16.35,12.49 20.63,37.96 7.44,44.22 0.38,63.5 26.74,90.45 17.37,17.75 57.83,36.41 80.41,13.09 41.56,-42.91 -13.11,-96.87 112.91,-62.59 16,4.35 31.25,5.11 53.48,5.11 9.36,35.04 40.52,48.7 63.92,149.15 -25.66,-5.98 -29.22,-18.51 -60.8,-13.36 -25.21,4.11 -42.82,13.36 -67.04,13.36 -36.99,0 -20.14,-26.64 -95.88,-26.64 -16.71,0 -138.68,40.44 -77.95,131.22 35.88,53.64 40.46,25.82 19.98,87.78 -13.45,40.69 -22.5,78.51 17.46,109.15 41.09,31.5 104.42,92.46 104.42,151.27 0,15.46 -16.56,20.06 -43.77,36.14 -63.97,37.81 -134.54,59.74 -211.92,59.74 0,-69.91 28.52,-81.59 52.95,-197.41 47.44,-224.92 -128.67,-122.2 -164.82,-122.2 -42.21,0 -84.78,-31.33 -112.34,-47.47 -43.29,-25.36 -40.67,-58.2 13.03,-83.8 17.64,-8.41 19.75,-7.6 28.7,-24.57 26.43,-50.12 -8.42,-137.14 27.99,-137.14 36.84,0 31.31,31.96 79.9,31.96 32.72,0 63.92,-30.29 63.92,-63.92 0,-22.96 -29.23,-37.8 -40.52,-55.36 -12.56,-19.53 -16.21,-51.69 -26.95,-74.26 -20.16,-42.36 -59.63,-28.27 -119.14,-30.01 -25.96,-0.76 -24.68,-4.99 -47.77,-5.5 13.32,-19.89 61.76,-39.35 85.79,-47.38 77.65,-25.96 107.35,-21.87 185.88,-21.87 26.77,0 23.85,4.79 47.94,5.33 -10,13.65 -37.29,25.66 -37.29,53.27zm-53.27 846.97c187.58,0 350.2,-113.14 420.05,-256.46 70.36,-144.37 66.4,-310.3 -13.42,-448.47l-45.73 -60.81c-12.74,-13.3 -14.62,-19.46 -26.47,-32.13 -24.25,-25.93 -62.39,-48.99 -91.55,-68.25 -14.85,-9.81 -19.92,-13.94 -36.81,-21.78 -320.98,-149.03 -675.41,91.93 -667.27,423.79 1.72,70.13 14.89,136.08 40.29,187.21 20.22,40.69 59.1,108.67 94.6,139.78 41.65,36.49 83.43,70.81 135.98,93.08 58.01,24.58 109,44.05 190.33,44.05z"/>
 </g>
</svg>
